
<svg width="120" height="120" viewBox="0 0 120 120" xmlns="http://www.w3.org/2000/svg">
  <defs>
    <linearGradient id="shieldGradient" x1="0%" y1="0%" x2="100%" y2="100%">
      <stop offset="0%" style="stop-color:#ff6b6b;stop-opacity:1" />
      <stop offset="50%" style="stop-color:#4ecdc4;stop-opacity:1" />
      <stop offset="100%" style="stop-color:#45b7d1;stop-opacity:1" />
    </linearGradient>
    <linearGradient id="lockGradient" x1="0%" y1="0%" x2="100%" y2="100%">
      <stop offset="0%" style="stop-color:#ffffff;stop-opacity:0.9" />
      <stop offset="100%" style="stop-color:#ffffff;stop-opacity:0.7" />
    </linearGradient>
    <filter id="glow">
      <feGaussianBlur stdDeviation="3" result="coloredBlur"/>
      <feMerge> 
        <feMergeNode in="coloredBlur"/>
        <feMergeNode in="SourceGraphic"/>
      </feMerge>
    </filter>
  </defs>
  
  <!-- Background circle -->
  <circle cx="60" cy="60" r="55" fill="rgba(0,0,0,0.2)" stroke="url(#shieldGradient)" stroke-width="2"/>
  
  <!-- Shield shape -->
  <path d="M60 15 L85 30 L85 55 Q85 75 60 95 Q35 75 35 55 L35 30 Z" 
        fill="url(#shieldGradient)" 
        filter="url(#glow)" 
        opacity="0.8"/>
  
  <!-- Lock body -->
  <rect x="50" y="55" width="20" height="25" rx="2" 
        fill="url(#lockGradient)" 
        filter="url(#glow)"/>
  
  <!-- Lock shackle -->
  <path d="M52 55 L52 45 Q52 40 60 40 Q68 40 68 45 L68 55" 
        stroke="url(#lockGradient)" 
        stroke-width="3" 
        fill="none" 
        filter="url(#glow)"/>
  
  <!-- Keyhole -->
  <circle cx="60" cy="65" r="3" fill="rgba(0,0,0,0.6)"/>
  <rect x="58.5" y="65" width="3" height="8" fill="rgba(0,0,0,0.6)"/>
  
  <!-- Signal waves -->
  <path d="M25 35 Q35 25 45 35" stroke="#4ecdc4" stroke-width="2" fill="none" opacity="0.6"/>
  <path d="M75 35 Q85 25 95 35" stroke="#4ecdc4" stroke-width="2" fill="none" opacity="0.6"/>
  <path d="M20 45 Q35 20 50 45" stroke="#4ecdc4" stroke-width="2" fill="none" opacity="0.4"/>
  <path d="M70 45 Q85 20 100 45" stroke="#4ecdc4" stroke-width="2" fill="none" opacity="0.4"/>
</svg>
